<svg width="221" height="221" viewBox="0 0 221 221" fill="none" xmlns="http://www.w3.org/2000/svg">
<g clip-path="url(#clip0_25_603)">
<g clip-path="url(#clip1_25_603)">
<path fill-rule="evenodd" clip-rule="evenodd" d="M164.941 178.664C164.164 178.664 163.387 178.276 162.869 177.629L143.32 151.476V176.075C143.32 177.499 142.155 178.664 140.73 178.664C139.306 178.664 138.141 177.499 138.141 176.075V143.708C138.141 142.543 138.788 141.637 139.954 141.248C140.989 140.86 142.155 141.248 142.802 142.155L162.351 168.307V143.708C162.351 142.284 163.517 141.119 164.941 141.119C166.365 141.119 167.53 142.284 167.53 143.708V176.075C167.53 177.24 166.753 178.146 165.718 178.535C165.459 178.664 165.2 178.664 164.941 178.664ZM192.906 221H28.0943C25.6344 221 23.6924 218.929 23.6924 216.469V4.40188C23.6924 2.07147 25.6344 0 28.0943 0H143.579H143.708H143.838H143.967L144.097 0.129467H144.226H144.356H144.485V0.258934H144.614H144.744V0.388401H144.873L145.003 0.517868H145.132V0.647335H145.262L196.401 47.2554H196.531V47.3849H196.66V47.5144L196.79 47.6438V47.7733H196.919V47.9028L197.049 48.0322V48.1617C197.049 48.1617 197.178 48.2912 197.178 48.4206C197.178 48.5501 197.178 48.6796 197.178 48.6796V48.809H197.308V48.9385V49.068V49.1974V216.469C197.308 218.929 195.236 221 192.906 221ZM28.8711 215.821H192.129V51.7868H143.579H143.449H143.32H143.19H143.061V51.6573H142.931H142.802H142.672L142.543 51.5278H142.414H142.284V51.3984H142.155L142.025 51.2689H141.896V51.1394H141.766V51.01H141.637V50.8805H141.507V50.751H141.378V50.6216L141.248 50.4921V50.3626L141.119 50.2332V50.1037V49.9742H140.989V49.8448V49.7153V49.5858V49.4564V49.3269V49.1974V5.17868H28.8711V215.821ZM58.519 103.962C54.5055 103.962 51.5278 102.926 49.5858 100.855C45.8312 96.9707 46.7375 90.7563 47.5143 84.8008C48.55 77.1623 48.809 72.5015 44.666 70.9479C43.6303 70.6889 42.8535 69.6532 42.8535 68.6175C42.8535 67.4523 43.6303 66.546 44.666 66.1576C48.809 64.604 48.55 59.9432 47.5143 52.4341C46.7375 46.3492 45.8312 40.1347 49.5858 36.2507C51.9162 33.9203 55.4118 32.8846 60.5905 33.273C62.0146 33.4025 63.0503 34.5677 62.9209 35.9918C62.7914 37.4159 61.6262 38.5811 60.202 38.4517C56.7064 38.1927 54.5055 38.7106 53.3403 39.8758C51.3983 41.9473 52.0456 46.867 52.693 51.6573C53.4698 57.4833 54.376 64.4745 50.3626 68.6175C54.376 72.6309 53.4698 79.6221 52.693 85.4482C52.0456 90.2384 51.3983 95.1582 53.3403 97.2296C54.5055 98.5243 56.7064 99.0422 60.202 98.7832C61.6262 98.6538 62.7914 99.6895 62.9209 101.114C63.0503 102.538 62.0146 103.832 60.5905 103.832C59.8136 103.962 59.1663 103.962 58.519 103.962ZM111.212 103.962C110.565 103.962 109.917 103.962 109.27 103.832C107.846 103.832 106.681 102.538 106.81 101.114C106.94 99.6895 108.234 98.6538 109.658 98.7832C113.025 99.0422 115.355 98.5243 116.52 97.2296C118.462 95.1582 117.815 90.2384 117.167 85.4482C116.391 79.6221 115.484 72.6309 119.498 68.6175C115.484 64.4745 116.391 57.4833 117.167 51.6573C117.815 46.867 118.462 41.9473 116.52 39.8758C115.355 38.7106 113.025 38.1927 109.658 38.4517C108.234 38.5811 106.94 37.4159 106.81 35.9918C106.681 34.5677 107.846 33.4025 109.27 33.273C114.319 32.8846 117.944 33.9203 120.275 36.2507C123.9 40.1347 123.123 46.3492 122.346 52.4341C121.31 59.9432 120.922 64.604 125.194 66.1576C126.23 66.546 126.878 67.4523 126.878 68.6175C126.878 69.6532 126.23 70.6889 125.194 70.9479C120.922 72.5015 121.31 77.1623 122.346 84.8008C123.123 90.7563 123.9 96.9707 120.275 100.855C118.203 102.926 115.355 103.962 111.212 103.962ZM70.0415 72.372H65.3807C63.9566 72.372 62.7914 71.2068 62.7914 69.7827C62.7914 68.3585 63.9566 67.1933 65.3807 67.1933H70.0415C71.4657 67.1933 72.6309 68.3585 72.6309 69.7827C72.6309 71.2068 71.4657 72.372 70.0415 72.372ZM87.2606 72.372H82.5998C81.1757 72.372 80.0105 71.2068 80.0105 69.7827C80.0105 68.3585 81.1757 67.1933 82.5998 67.1933H87.2606C88.6848 67.1933 89.85 68.3585 89.85 69.7827C89.85 71.2068 88.6848 72.372 87.2606 72.372ZM104.35 72.372H99.6895C98.2653 72.372 97.1001 71.2068 97.1001 69.7827C97.1001 68.3585 98.2653 67.1933 99.6895 67.1933H104.35C105.774 67.1933 106.94 68.3585 106.94 69.7827C106.94 71.2068 105.774 72.372 104.35 72.372ZM146.168 46.6081H187.986L146.168 8.41535V46.6081ZM175.169 198.343H45.8312C42.8535 198.343 40.5231 196.013 40.5231 193.165V126.489C40.5231 123.641 42.983 121.31 45.8312 121.31H175.169C178.017 121.31 180.347 123.641 180.347 126.489V193.165C180.347 196.013 178.017 198.343 175.169 198.343ZM45.8312 126.489L45.7018 193.165H175.169V126.489H45.8312ZM62.403 178.664H56.0591C54.635 178.664 53.4698 177.499 53.4698 176.075C53.4698 174.651 54.635 173.486 56.0591 173.486H62.403C64.4745 173.486 66.0281 171.803 66.0281 169.861V143.579C66.0281 142.155 67.1933 140.989 68.6174 140.989C70.0415 140.989 71.2067 142.155 71.2067 143.579V169.861C71.2067 174.651 67.3227 178.664 62.403 178.664ZM89.9794 178.664C84.1534 178.664 79.3632 173.874 79.3632 167.919C79.3632 166.494 80.5284 165.329 81.9525 165.329C83.3766 165.329 84.5418 166.494 84.5418 167.919C84.5418 171.026 87.0017 173.486 89.9794 173.486C93.0866 173.486 95.5465 171.026 95.5465 167.919C95.5465 164.941 93.0866 162.481 89.9794 162.481C84.1534 162.481 79.3632 157.691 79.3632 151.735C79.3632 145.909 84.1534 141.119 89.9794 141.119C95.9349 141.119 100.725 145.909 100.725 151.735C100.725 153.159 99.56 154.325 98.1359 154.325C96.7117 154.325 95.5465 153.159 95.5465 151.735C95.5465 148.757 93.0866 146.298 89.9794 146.298C87.0017 146.298 84.5418 148.757 84.5418 151.735C84.5418 154.842 87.0017 157.302 89.9794 157.302C95.9349 157.302 100.725 162.093 100.725 167.919C100.725 173.874 95.9349 178.664 89.9794 178.664ZM119.368 178.664C113.542 178.664 108.752 173.874 108.752 168.048V151.735C108.752 145.909 113.542 141.119 119.368 141.119C125.324 141.119 129.985 145.909 129.985 151.735V168.048C129.985 173.874 125.324 178.664 119.368 178.664ZM119.368 146.298C116.391 146.298 113.931 148.757 113.931 151.735V168.048C113.931 171.026 116.391 173.486 119.368 173.486C122.476 173.486 124.806 171.026 124.806 168.048V151.735C124.806 148.757 122.476 146.298 119.368 146.298Z" fill="black"/>
<path fill-rule="evenodd" clip-rule="evenodd" d="M45.8313 121.31H175.169C178.017 121.31 180.347 123.641 180.347 126.489V193.165C180.347 196.013 178.017 198.343 175.169 198.343H45.8313C42.8535 198.343 40.5231 196.013 40.5231 193.165V126.489C40.5231 123.641 42.983 121.31 45.8313 121.31ZM28.8711 215.821H192.129V51.7867H143.579H143.449H143.32H143.19H143.061V51.6573H142.931H142.802H142.673L142.543 51.5278H142.414H142.284V51.3983H142.155L142.025 51.2689H141.896V51.1394H141.766V51.0099H141.637V50.8805H141.507V50.751H141.378V50.6215L141.248 50.4921V50.3626L141.119 50.2331V50.1037V49.9742H140.989V49.8447V49.7153V49.5858V49.4563V49.3269V49.1974V5.17865H28.8711V215.821ZM125.194 70.9478C120.922 72.5014 121.31 77.1622 122.346 84.8008C123.123 90.7563 123.9 96.9707 120.275 100.855C118.203 102.926 115.355 103.962 111.212 103.962C110.565 103.962 109.917 103.962 109.27 103.832C107.846 103.832 106.681 102.538 106.81 101.114C106.94 99.6895 108.234 98.6538 109.658 98.7832C113.025 99.0422 115.355 98.5243 116.52 97.2296C118.462 95.1581 117.815 90.2384 117.168 85.4481C116.391 79.6221 115.484 72.6309 119.498 68.6174C115.484 64.4745 116.391 57.4833 117.168 51.6573C117.815 46.867 118.462 41.9473 116.52 39.8758C115.355 38.7106 113.025 38.1927 109.658 38.4516C108.234 38.5811 106.94 37.4159 106.81 35.9918C106.681 34.5676 107.846 33.4024 109.27 33.273C114.319 32.8846 117.944 33.9203 120.275 36.2507C123.9 40.1347 123.123 46.3491 122.346 52.4341C121.31 59.9431 120.922 64.604 125.194 66.1576C126.23 66.546 126.878 67.4522 126.878 68.6174C126.878 69.6532 126.23 70.6889 125.194 70.9478ZM60.2021 98.7832C61.6262 98.6538 62.7914 99.6895 62.9209 101.114C63.0504 102.538 62.0146 103.832 60.5905 103.832C59.8137 103.962 59.1663 103.962 58.519 103.962C54.5055 103.962 51.5278 102.926 49.5858 100.855C45.8313 96.9707 46.7375 90.7563 47.5143 84.8008C48.5501 77.1622 48.809 72.5014 44.6661 70.9478C43.6303 70.6889 42.8535 69.6532 42.8535 68.6174C42.8535 67.4522 43.6303 66.546 44.6661 66.1576C48.809 64.604 48.5501 59.9431 47.5143 52.4341C46.7375 46.3491 45.8313 40.1347 49.5858 36.2507C51.9162 33.9203 55.4118 32.8846 60.5905 33.273C62.0146 33.4024 63.0504 34.5676 62.9209 35.9918C62.7914 37.4159 61.6262 38.5811 60.2021 38.4516C56.7065 38.1927 54.5055 38.7106 53.3403 39.8758C51.3983 41.9473 52.0457 46.867 52.693 51.6573C53.4698 57.4833 54.3761 64.4745 50.3626 68.6174C54.3761 72.6309 53.4698 79.6221 52.693 85.4481C52.0457 90.2384 51.3983 95.1581 53.3403 97.2296C54.5055 98.5243 56.7065 99.0422 60.2021 98.7832ZM104.35 67.1933C105.774 67.1933 106.94 68.3585 106.94 69.7826C106.94 71.2068 105.774 72.372 104.35 72.372H99.6895C98.2654 72.372 97.1002 71.2068 97.1002 69.7826C97.1002 68.3585 98.2654 67.1933 99.6895 67.1933H104.35ZM89.85 69.7826C89.85 71.2068 88.6848 72.372 87.2607 72.372H82.5999C81.1757 72.372 80.0105 71.2068 80.0105 69.7826C80.0105 68.3585 81.1757 67.1933 82.5999 67.1933H87.2607C88.6848 67.1933 89.85 68.3585 89.85 69.7826ZM72.6309 69.7826C72.6309 71.2068 71.4657 72.372 70.0416 72.372H65.3808C63.9566 72.372 62.7914 71.2068 62.7914 69.7826C62.7914 68.3585 63.9566 67.1933 65.3808 67.1933H70.0416C71.4657 67.1933 72.6309 68.3585 72.6309 69.7826Z" fill="#FCB900"/>
<path fill-rule="evenodd" clip-rule="evenodd" d="M146.168 46.6081H187.986L146.168 8.41534V46.6081Z" fill="#FCB900"/>
<path fill-rule="evenodd" clip-rule="evenodd" d="M175.467 127H46.1295L46 193.675H175.467V127ZM109.05 152.246C109.05 146.42 113.841 141.63 119.667 141.63C125.622 141.63 130.283 146.42 130.283 152.246V168.559C130.283 174.385 125.622 179.175 119.667 179.175C113.841 179.175 109.05 174.385 109.05 168.559V152.246ZM138.439 176.586V144.219C138.439 143.054 139.087 142.148 140.252 141.759C141.288 141.371 142.453 141.759 143.1 142.665L162.65 168.818V144.219C162.65 142.795 163.815 141.63 165.239 141.63C166.663 141.63 167.828 142.795 167.828 144.219V176.586C167.828 177.751 167.052 178.657 166.016 179.046C165.757 179.175 165.498 179.175 165.239 179.175C164.462 179.175 163.685 178.787 163.168 178.139L143.618 151.987V176.586C143.618 178.01 142.453 179.175 141.029 179.175C139.605 179.175 138.439 178.01 138.439 176.586ZM90.2777 141.63C96.2332 141.63 101.023 146.42 101.023 152.246C101.023 153.67 99.8582 154.835 98.4341 154.835C97.01 154.835 95.8448 153.67 95.8448 152.246C95.8448 149.268 93.3849 146.808 90.2777 146.808C87.2999 146.808 84.8401 149.268 84.8401 152.246C84.8401 155.353 87.2999 157.813 90.2777 157.813C96.2332 157.813 101.023 162.603 101.023 168.429C101.023 174.385 96.2332 179.175 90.2777 179.175C84.4517 179.175 79.6614 174.385 79.6614 168.429C79.6614 167.005 80.8266 165.84 82.2507 165.84C83.6749 165.84 84.8401 167.005 84.8401 168.429C84.8401 171.537 87.2999 173.996 90.2777 173.996C93.3849 173.996 95.8448 171.537 95.8448 168.429C95.8448 165.452 93.3849 162.992 90.2777 162.992C84.4517 162.992 79.6614 158.202 79.6614 152.246C79.6614 146.42 84.4517 141.63 90.2777 141.63ZM71.505 144.09V170.371C71.505 175.162 67.621 179.175 62.7012 179.175H56.3574C54.9332 179.175 53.768 178.01 53.768 176.586C53.768 175.162 54.9332 173.996 56.3574 173.996H62.7012C64.7727 173.996 66.3263 172.313 66.3263 170.371V144.09C66.3263 142.665 67.4915 141.5 68.9156 141.5C70.3398 141.5 71.505 142.665 71.505 144.09Z" fill="#F7F7F7"/>
<path fill-rule="evenodd" clip-rule="evenodd" d="M119.368 146.298C116.391 146.298 113.931 148.757 113.931 151.735V168.048C113.931 171.026 116.391 173.486 119.368 173.486C122.475 173.486 124.806 171.026 124.806 168.048V151.735C124.806 148.757 122.475 146.298 119.368 146.298Z" fill="#F7F7F7"/>
</g>
</g>
<defs>
<clipPath id="clip0_25_603">
<rect width="221" height="221" fill="white"/>
</clipPath>
<clipPath id="clip1_25_603">
<rect width="221" height="221" fill="white"/>
</clipPath>
</defs>
</svg>
