<svg width="128" height="128" viewBox="0 0 128 128" fill="none" xmlns="http://www.w3.org/2000/svg">
<g clip-path="url(#clip0_21_90)">
<path d="M47.5711 1.21353C33.3331 0.947557 19.0952 1.53606 4.90551 2.49356C-0.733136 5.11008 4.07601 13.2904 2.81429 18.304C3.3479 51.1801 0.841097 84.0245 1.23341 116.894C0.116318 125.094 9.67642 127.897 16.1579 126.421C33.0539 126.853 49.9632 125.774 66.8592 126.542C79.5262 126.815 92.1949 125.482 104.84 125.812C111.259 126.79 122.275 128.692 123.921 120.001C123.733 111.395 124.951 102.836 125.315 94.2396C124.295 73.9375 126.921 53.6337 125.749 33.3382C124.285 25.8826 124.544 18.3306 124.798 10.7637C125.666 6.56293 122.684 2.3024 118.061 2.97398C94.5986 1.61751 71.0682 1.41806 47.5711 1.21526V1.21353ZM6.60442 4.95714C6.47975 5.6387 6.74572 5.00368 6.60442 4.95714V4.95714ZM47.5544 5.64535C71.4073 5.88805 95.2901 5.98451 119.098 7.52218C122.328 10.8635 119.103 18.7662 120.175 23.705C86.9552 22.2255 53.6669 22.287 20.4783 24.4148C15.8104 23.2412 4.34032 28.4409 7.19788 19.4394C8.13876 14.2728 3.24816 4.10108 12.2048 6.56134C23.9758 5.5922 35.7535 5.5506 47.5544 5.64535ZM80.7796 10.782C72.5377 11.3572 79.0823 24.1638 83.9713 17.059C85.3427 14.7018 83.7951 10.6956 80.7796 10.782ZM108.035 11.1792C100.758 11.5915 105.161 24.6741 110.161 17.8835C110.71 15.8039 111.403 11.2673 108.035 11.1792ZM107.899 11.3638L106.355 12.6105C106.589 11.9523 107.229 11.4935 107.899 11.3638ZM93.8439 11.7179C89.4237 11.432 89.053 18.0846 92.9047 19.4893C98.6813 21.7484 99.2515 11.54 93.8439 11.7179ZM91.8109 12.3313C91.4285 12.4194 91.8956 12.5275 91.8109 12.3313V12.3313ZM91.5166 12.559C89.9108 15.2237 91.9804 15.4265 91.5166 12.559V12.559ZM106.331 12.6488C106.155 12.7685 106.178 13.5448 106.331 12.6488V12.6488ZM106.152 13.48C106.037 13.6612 106.335 14.351 106.152 13.48V13.48ZM106.212 14.007C106.215 14.0834 106.223 14.0252 106.212 14.007V14.007ZM91.3936 15.3351C91.3936 15.9385 91.643 15.2769 91.3936 15.3351V15.3351ZM107.783 15.6493C107.818 15.7008 108.02 15.6343 107.783 15.6493V15.6493ZM7.25938 24.7989C7.24608 24.8304 7.36078 24.8288 7.25938 24.7989V24.7989ZM7.32089 24.8404C7.68827 24.9866 8.42634 26.1519 7.32089 24.8404V24.8404ZM7.94427 25.487C8.28505 25.861 8.44297 27.0928 7.94427 25.487V25.487ZM78.5753 27.1144C92.5705 27.1875 106.562 27.5948 120.546 28.1567C122.729 42.1686 121.169 56.4248 120.883 70.5247C120.124 82.3389 121.656 94.1947 120.009 105.966C118.304 111.082 122.35 119.123 116.829 121.901C109.159 122.712 101.487 120.254 93.7541 121.459C78.5886 122.326 63.4098 122.046 48.2377 121.795C36.7426 122.218 25.2326 121.926 13.7458 122.102C4.94873 124.438 4.94042 114.77 5.54219 108.7C5.89793 82.1329 7.08151 55.2977 7.38572 28.9197C27.9339 29.2222 48.4172 26.8319 68.9737 27.1161C72.1737 27.0978 75.3753 27.0994 78.5753 27.1144ZM98.043 40.9933C96.9708 41.2908 94.2562 43.7096 96.5352 41.6882C90.1618 42.905 91.5997 53.0685 97.0938 54.9902C96.5701 60.0304 86.2038 62.2811 85.1997 56.4696C78.1165 46.0717 63.5561 42.2085 52.1757 47.4665C45.4333 49.2568 41.5202 56.3251 37.5505 60.2415C33.634 62.1632 24.5178 57.4023 31.8703 55.2795C38.1839 52.1692 34.7013 43.2491 28.6969 42.2783C23.281 40.8137 17.8751 46.5422 19.81 51.9265C22.0492 55.7199 25.0215 57.5519 26.2915 61.9687C29.7408 67.2732 40.3299 61.1192 37.8048 69.6037C38.4814 73.1695 39.4522 75.7578 35.0969 74.0339C31.1937 70.9171 27.0246 66.8808 22.9602 69.0967C17.265 72.0241 17.6839 81.7937 24.2435 83.3247C29.1956 85.5905 34.1959 81.3732 36.4484 78.6835C40.6508 77.6911 42.5741 85.263 42.3879 86.5746C36.1907 85.7069 27.8142 85.5206 24.423 91.8242C20.7958 93.5597 14.6485 98.2525 19.2116 103.52C22.8056 108.848 33.4911 108.03 33.8784 100.753C35.3363 95.9668 24.9849 92.5789 32.2693 91.1177C36.3935 90.5708 43.6164 89.507 45.804 93.4617C46.6202 97.7904 44.253 105.572 50.8974 105.75C58.2267 106.225 65.5426 108.674 72.8935 107.497C80.3524 106.336 81.9698 97.5062 81.0838 91.3971C86.1739 91.8609 91.6829 90.0555 96.507 92.2182C98.7312 94.8247 91.3687 95.4565 91.6895 99.752C89.452 105.866 96.8278 110.687 102.176 108.409C109.711 105.874 105.927 97.8386 102.285 94.0219C101.195 86.7176 92.8565 86.0709 87.0017 86.8887C82.6298 87.5055 90.0022 81.7023 89.3822 78.7267C93.0626 74.3631 98.0513 84.5848 103.514 80.1862C110.499 76.9796 106.449 69.278 102.41 65.7239C95.9451 62.7234 94.3509 76.047 90.2017 72.3932C90.4727 68.2773 86.749 62.7849 93.3419 63.6576C100.28 63.2088 100.422 55.4939 105.61 53.2448C109.106 47.8056 104.455 40.3632 98.043 40.9933ZM25.0514 42.5941C23.9276 43.2175 24.8785 42.5509 25.0514 42.5941V42.5941ZM24.5527 42.8219C23.1364 44.6056 23.9908 42.9865 24.5527 42.8219V42.8219ZM23.7016 43.7694C23.4855 43.8841 23.517 44.8167 23.7016 43.7694V43.7694ZM23.4971 44.7053C23.3491 44.9065 23.7431 45.6711 23.4971 44.7053V44.7053ZM23.6367 45.4866C23.6633 46.2745 25.8227 47.5745 23.6367 45.4866V45.4866ZM98.2341 45.5298C106.684 45.8589 98.8874 56.4048 96.7463 47.8222C96.4305 46.5705 97.3431 45.9919 98.2341 45.5298ZM26.9863 46.4874C34.5001 47.2936 28.5772 55.311 24.418 51.4161C23.3425 47.7756 24.551 46.5522 26.9863 46.4874ZM62.8662 49.5776C74.9032 49.0007 85.8281 59.6863 85.735 71.7183C85.75 74.0173 85.2995 83.8567 76.6753 87.3243C75.2723 91.8342 78.7981 97.9948 74.6871 101.933C69.243 105.021 62.7615 102.196 56.9151 102.048C50.7694 103.037 49.6523 99.4012 50.3222 94.1133C50.525 90.2683 48.9907 87.0966 46.7399 84.0827C43.6297 78.0418 41.5601 71.1581 42.3862 64.3109C43.4335 59.0264 47.6475 54.0244 53.1948 51.8533C56.2335 50.4902 59.5366 49.6989 62.8662 49.5776ZM87.4156 60.283C87.6633 60.7967 88.1919 60.6072 87.4156 60.283V60.283ZM55.665 61.5198C49.5193 60.4759 45.2189 68.2407 48.8062 73.4222C52.0727 79.2637 63.0325 77.1109 62.331 69.9096C62.0849 66.0979 59.4684 62.4325 55.665 61.5198ZM88.6325 61.7625C88.6391 61.8573 88.6624 61.7708 88.6325 61.7625V61.7625ZM52.7858 61.8606C51.2232 62.8963 50.4652 65.3333 51.9713 62.2546L52.47 61.962L52.7858 61.8606ZM72.3083 61.8805C66.3156 62.1432 63.5212 70.2936 67.7784 74.4379C71.6317 79.7025 82.6131 79.0592 82.8276 71.429C83.0703 65.7871 77.568 61.7941 72.3083 61.8805ZM88.5909 62.9877C88.5361 62.9827 88.5427 63.2337 88.5909 62.9877V62.9877ZM54.5263 65.7339C60.283 66.8759 57.3223 76.0087 52.5199 71.0583C51.4593 68.8889 52.0045 66.1927 54.5263 65.7339ZM100.538 65.8319C96.9192 66.9623 104.255 66.5019 100.538 65.8319V65.8319ZM72.6657 66.2824C81.8136 66.2475 77.4466 78.0335 71.0998 71.5803C69.3427 69.9379 70.0542 66.4819 72.6657 66.2824ZM102.056 66.3058C102.064 66.3872 102.141 66.2775 102.056 66.3058V66.3058ZM25.9574 68.51C25.0963 68.4917 25.3473 68.9738 25.9574 68.51V68.51ZM100.247 70.5098C105.791 72.5196 101.447 79.1256 97.4977 75.668C97.122 73.6067 98.3887 71.4141 100.247 70.5098ZM25.058 73.113C30.3143 72.4447 33.7637 80.7947 26.4561 79.1207C22.8837 79.109 22.2952 74.8219 25.058 73.113ZM67.7917 82.7279C64.0964 83.2167 62.7731 90.2766 59.3404 84.6379C54.2271 80.8511 54.2503 88.9833 58.7968 89.8361C60.8116 92.5241 49.8053 98.3622 57.0264 100.252C60.544 98.57 62.2578 90.3015 65.7138 96.655C66.8558 100.237 74.2366 101.652 71.8279 96.6517C69.2214 93.4384 62.7881 90.1503 68.6595 86.9702C70.5496 85.8215 73.1877 85.5755 68.573 84.9621C66.2557 85.5439 69.8264 82.437 67.7917 82.7279ZM44.0685 89.1878L44.0785 91.3189C43.7228 90.7255 43.5765 89.7446 44.0685 89.1878ZM26.1136 97.3532C32.1745 97.7123 27.9605 106.067 23.3575 101.441C20.3769 98.826 23.4223 97.0108 26.1136 97.3532ZM96.8178 99.1269C96.8278 99.1036 96.8827 99.1468 96.8178 99.1269V99.1269ZM97.9249 98.7313C104.209 98.6199 102.565 107.156 96.8943 103.884C94.9593 102.847 95.9916 99.1169 97.9249 98.7313Z" fill="#40514E"/>
<g filter="url(#filter0_d_21_90)">
<path d="M16.937 12.619C17.6737 12.6797 18.042 13.0393 18.042 13.698L18.068 13.867L18.042 15.895C18.042 16.129 18.1763 16.4453 18.445 16.844V16.87C18.3757 17.1213 18.25 17.247 18.068 17.247C17.5307 17.0217 17.262 16.545 17.262 15.817V15.648L17.223 15.622L17.262 15.57V15.544L17.301 13.75C17.301 13.4987 17.1927 13.373 16.976 13.373H16.82C16.3867 13.5463 16.17 14.4953 16.17 16.22C16.17 16.818 16.0183 17.117 15.715 17.117C15.481 17.117 15.3597 16.9697 15.351 16.675V15.375C15.351 13.6937 15.4983 12.853 15.793 12.853L15.923 12.814L16.196 12.853C16.43 12.697 16.677 12.619 16.937 12.619ZM20.9325 12.099C21.5738 12.099 22.0591 12.5757 22.3885 13.529L22.4405 13.802C22.4405 14.7293 22.0071 15.6783 21.1405 16.649C20.7938 16.9697 20.4428 17.13 20.0875 17.13C19.5675 17.13 19.1991 16.831 18.9825 16.233C18.9045 15.9557 18.8655 15.713 18.8655 15.505V15.349C18.8655 13.9797 19.3638 12.9397 20.3605 12.229C20.5338 12.1423 20.7245 12.099 20.9325 12.099ZM19.6325 15.479C19.6325 16.0683 19.7841 16.363 20.0875 16.363C20.7201 16.363 21.2445 15.5527 21.6605 13.932V13.685C21.5131 13.1477 21.2401 12.879 20.8415 12.879C20.6855 12.879 20.6075 12.9873 20.6075 13.204C20.6075 13.3513 20.4341 13.4683 20.0875 13.555C19.7841 14.0663 19.6325 14.7077 19.6325 15.479ZM23.5365 13.087L23.7705 12.957C23.9785 12.957 24.1302 13.0827 24.2255 13.334C24.0869 13.9753 24.0175 14.634 24.0175 15.31C24.0175 15.648 24.1172 16.0163 24.3165 16.415H24.3945C24.6459 16.415 24.9449 15.4227 25.2915 13.438C25.4129 13.334 25.5299 13.282 25.6425 13.282C25.9112 13.282 26.0455 13.7587 26.0455 14.712C26.1582 15.7607 26.2839 16.285 26.4225 16.285L26.6175 16.207C26.8689 16.3023 26.9945 16.4367 26.9945 16.61C26.8385 16.9393 26.6219 17.104 26.3445 17.104C26.0325 17.104 25.7335 16.792 25.4475 16.168C25.1009 16.896 24.7499 17.26 24.3945 17.26C23.8659 17.26 23.4975 16.7097 23.2895 15.609L23.2505 15.193V15.063C23.2505 14.3697 23.3459 13.711 23.5365 13.087ZM27.8155 9.824C28.0581 9.824 28.1795 10.1187 28.1795 10.708L28.3355 12.944H28.3875L29.0375 12.697C29.7655 12.697 30.2075 13.4423 30.3635 14.933C30.4241 15.3577 30.4545 15.9817 30.4545 16.805V17.858C30.4545 18.1873 30.3331 18.352 30.0905 18.352H30.0385C29.8045 18.3173 29.6875 18.1917 29.6875 17.975V16.753C29.6875 14.7943 29.4968 13.711 29.1155 13.503H29.0375C28.7775 13.503 28.5868 13.9017 28.4655 14.699V15.427C28.4655 16.727 28.3571 17.377 28.1405 17.377L27.8935 17.403C27.6508 17.403 27.5295 17.0433 27.5295 16.324C27.5555 15.5613 27.6075 14.9373 27.6855 14.452L27.4125 10.175C27.4125 9.94967 27.5468 9.83267 27.8155 9.824ZM33.4964 11.982C33.8777 11.982 34.0684 12.1337 34.0684 12.437L33.9514 12.684L33.8734 15.063C33.8734 16.1377 34.09 16.805 34.5234 17.065L34.5494 17.26C34.5234 17.5113 34.4064 17.637 34.1984 17.637H34.1204C33.4704 17.195 33.1454 16.519 33.1454 15.609H33.0544C32.7077 16.5797 32.2874 17.065 31.7934 17.065C31.334 16.935 31.1044 16.5927 31.1044 16.038C31.1044 14.816 31.594 13.5983 32.5734 12.385C32.9027 12.1163 33.2104 11.982 33.4964 11.982ZM31.9234 15.518L31.8714 15.882V16.129H32.0014C32.6514 14.5083 32.9764 13.5203 32.9764 13.165H32.9244C32.4217 13.7283 32.088 14.5127 31.9234 15.518ZM43.4406 12.918C44.0386 13.3167 44.3376 13.932 44.3376 14.764C44.3376 15.8907 43.9606 16.6577 43.2066 17.065L42.7126 17.143C42.418 17.143 42.106 17 41.7766 16.714H41.6856C41.417 17.0607 41.1656 17.234 40.9316 17.234C40.3163 17.234 39.961 16.6533 39.8656 15.492V14.79C39.9263 13.6893 40.156 13.139 40.5546 13.139C40.7713 13.139 40.897 13.2733 40.9316 13.542C40.7323 13.8887 40.6326 14.374 40.6326 14.998V15.245C40.6673 16.025 40.7496 16.415 40.8796 16.415C41.0096 16.415 41.144 16.1897 41.2826 15.739L41.2566 14.842C41.2566 14.244 41.3996 13.945 41.6856 13.945C42.015 13.945 42.1796 14.27 42.1796 14.92H42.2316L42.1016 15.739C42.249 16.1723 42.4526 16.389 42.7126 16.389H42.7906C43.172 16.389 43.419 15.9817 43.5316 15.167V14.439C43.5316 14.1617 43.367 13.8193 43.0376 13.412L42.9856 13.295C42.9856 13.113 43.1373 12.9873 43.4406 12.918ZM47.0467 12.099C47.6881 12.099 48.1734 12.5757 48.5027 13.529L48.5547 13.802C48.5547 14.7293 48.1214 15.6783 47.2547 16.649C46.9081 16.9697 46.5571 17.13 46.2017 17.13C45.6817 17.13 45.3134 16.831 45.0967 16.233C45.0187 15.9557 44.9797 15.713 44.9797 15.505V15.349C44.9797 13.9797 45.4781 12.9397 46.4747 12.229C46.6481 12.1423 46.8387 12.099 47.0467 12.099ZM45.7467 15.479C45.7467 16.0683 45.8984 16.363 46.2017 16.363C46.8344 16.363 47.3587 15.5527 47.7747 13.932V13.685C47.6274 13.1477 47.3544 12.879 46.9557 12.879C46.7997 12.879 46.7217 12.9873 46.7217 13.204C46.7217 13.3513 46.5484 13.4683 46.2017 13.555C45.8984 14.0663 45.7467 14.7077 45.7467 15.479ZM50.8468 11.878C51.3928 11.878 51.7178 12.2593 51.8218 13.022V13.139C51.8218 13.9797 51.3885 14.751 50.5218 15.453C51.0245 15.947 51.9041 16.194 53.1608 16.194C53.3515 16.2547 53.4468 16.389 53.4468 16.597C53.4468 16.831 53.2951 16.948 52.9918 16.948C52.1425 16.948 51.2498 16.7313 50.3138 16.298V16.675C50.3138 17.5677 50.1231 18.014 49.7418 18.014C49.4731 18.014 49.3388 17.4983 49.3388 16.467V15.453L49.2998 15.089L49.3908 14.673L49.2998 13.425V13.373C49.2998 13.139 49.4211 12.9787 49.6638 12.892C50.0018 12.216 50.3961 11.878 50.8468 11.878ZM50.1968 14.725C50.4481 14.725 50.7298 14.2743 51.0418 13.373V12.814L50.8858 12.645H50.7688C50.3875 12.905 50.1968 13.5983 50.1968 14.725ZM56.9338 9.863C57.0812 9.863 57.2155 10.0017 57.3368 10.279L56.7648 13.893V14.907C56.7648 15.9643 56.9295 16.493 57.2588 16.493C57.4755 16.597 57.5838 16.7357 57.5838 16.909C57.5838 17.1083 57.4105 17.2253 57.0638 17.26C56.6825 17.26 56.3835 16.909 56.1668 16.207H56.0368C55.7162 16.909 55.3262 17.26 54.8668 17.26C54.3295 17.26 54.0045 16.8527 53.8918 16.038C53.8918 15.0933 54.5245 14.0923 55.7898 13.035C56.0412 13.035 56.1668 12.684 56.1668 11.982C56.3575 10.5693 56.6132 9.863 56.9338 9.863ZM54.6588 15.934V16.285L54.8668 16.493H54.9448C55.2222 16.493 55.5472 15.6567 55.9198 13.984H55.8418C55.0532 14.7727 54.6588 15.4227 54.6588 15.934ZM58.7839 9.837C59.0266 9.92367 59.1479 10.058 59.1479 10.24L59.2779 15.193V16.792C59.2779 17.0867 59.1522 17.234 58.9009 17.234H58.7319C58.5759 17.13 58.4979 17.0087 58.4979 16.87V15.362L58.3809 10.214C58.3809 9.99733 58.5152 9.87167 58.7839 9.837ZM60.3698 10.227C60.6991 10.2963 60.8638 10.4437 60.8638 10.669C60.7771 10.9117 60.6385 11.033 60.4478 11.033C60.1271 10.9723 59.9668 10.812 59.9668 10.552C60.0535 10.3353 60.1878 10.227 60.3698 10.227ZM60.8638 12.047C61.0025 12.047 61.1195 12.1727 61.2148 12.424L61.0978 13.347V13.958C61.0978 14.6687 61.2191 15.6003 61.4618 16.753C61.3751 16.9177 61.2278 17 61.0198 17C60.6645 17 60.4305 15.96 60.3178 13.88V13.425C60.3178 12.5063 60.4998 12.047 60.8638 12.047ZM64.7438 11.735C64.9778 11.735 65.1381 12.1293 65.2248 12.918C65.1381 13.1347 64.9951 13.243 64.7958 13.243C64.6571 13.217 64.5185 13.0567 64.3798 12.762L64.1458 12.684C63.7385 12.684 63.3701 12.9527 63.0408 13.49V13.607C63.0408 13.737 63.6518 13.9537 64.8738 14.257C65.3851 14.5603 65.6408 14.9287 65.6408 15.362C65.6408 16.0727 65.0688 16.6793 63.9248 17.182L63.4438 17.26C62.7158 17.182 62.3518 16.818 62.3518 16.168V16.129C62.3518 15.921 62.4861 15.7997 62.7548 15.765C62.9628 15.765 63.1015 15.9817 63.1708 16.415L63.2748 16.493H63.4958C63.9898 16.493 64.4491 16.155 64.8738 15.479V15.31C64.8738 15.05 64.3061 14.8073 63.1708 14.582C62.5728 14.3393 62.2738 14.0013 62.2738 13.568C62.2738 13.0047 62.7461 12.476 63.6908 11.982C64.1068 11.93 64.4578 11.8477 64.7438 11.735ZM67.6511 9.109C67.8938 9.161 68.0151 9.28233 68.0151 9.473L67.9371 10.045V10.214C67.9371 10.5953 67.9805 10.9983 68.0671 11.423H68.0931C69.0985 11.1197 69.7225 10.968 69.9651 10.968C70.2165 11.0373 70.3421 11.163 70.3421 11.345C70.3421 11.6397 70.0431 11.787 69.4451 11.787L68.0931 12.268C68.0931 13.438 68.2188 15.0283 68.4701 17.039C68.4181 17.273 68.2925 17.39 68.0931 17.39H68.0671C67.7638 17.39 67.6121 17 67.6121 16.22C67.4995 15.6393 67.4041 14.3783 67.3261 12.437H67.0921C66.2775 12.385 65.8701 12.1943 65.8701 11.865C65.8701 11.7697 65.9611 11.6527 66.1431 11.514H66.2731L66.8711 11.67H67.2871L67.1701 10.045C67.1701 9.421 67.3305 9.109 67.6511 9.109Z" fill="#40514E"/>
</g>
</g>
<defs>
<filter id="filter0_d_21_90" x="13.351" y="9.10901" width="58.9912" height="13.243" filterUnits="userSpaceOnUse" color-interpolation-filters="sRGB">
<feFlood flood-opacity="0" result="BackgroundImageFix"/>
<feColorMatrix in="SourceAlpha" type="matrix" values="0 0 0 0 0 0 0 0 0 0 0 0 0 0 0 0 0 0 127 0" result="hardAlpha"/>
<feOffset dy="2"/>
<feGaussianBlur stdDeviation="1"/>
<feComposite in2="hardAlpha" operator="out"/>
<feColorMatrix type="matrix" values="0 0 0 0 0 0 0 0 0 0 0 0 0 0 0 0 0 0 0.25 0"/>
<feBlend mode="normal" in2="BackgroundImageFix" result="effect1_dropShadow_21_90"/>
<feBlend mode="normal" in="SourceGraphic" in2="effect1_dropShadow_21_90" result="shape"/>
</filter>
<clipPath id="clip0_21_90">
<rect width="128" height="128" fill="white"/>
</clipPath>
</defs>
</svg>
