<svg width="221" height="221" viewBox="0 0 221 221" fill="none" xmlns="http://www.w3.org/2000/svg">
<g clip-path="url(#clip0_25_590)">
<path d="M10.3594 0H155.391V186.469H10.3594V0Z" fill="#00AAA8"/>
<path d="M183.016 55.25V110.5H37.9844V27.625H155.391L183.016 55.25Z" fill="#93E6E5"/>
<path d="M37.9844 110.5H183.016V214.094H37.9844V110.5ZM183.016 55.25H155.391V27.625L183.016 55.25Z" fill="#50D9D7"/>
<path d="M179.562 221L172.656 189.922L203.734 196.828L179.562 221Z" fill="#FFAC00"/>
<path d="M179.58 203.7L186.486 196.787L203.751 214.052L196.842 220.958L179.58 203.7Z" fill="#FFAC00"/>
<path d="M58.7031 100.141C58.7031 99.2248 58.3393 98.3465 57.6917 97.6989C57.0441 97.0513 56.1658 96.6875 55.25 96.6875C54.3342 96.6875 53.4559 97.0513 52.8083 97.6989C52.1607 98.3465 51.7969 99.2248 51.7969 100.141C51.7969 101.056 52.1607 101.935 52.8083 102.582C53.4559 103.23 54.3342 103.594 55.25 103.594C56.1658 103.594 57.0441 103.23 57.6917 102.582C58.3393 101.935 58.7031 101.056 58.7031 100.141ZM86.3281 120.859H162.297V127.766H86.3281V120.859ZM58.7031 134.672H162.297V141.578H58.7031V134.672ZM58.7031 148.484H162.297V155.391H58.7031V148.484ZM58.7031 162.297H162.297V169.203H58.7031V162.297Z" fill="#F3F3F3"/>
<path d="M58.7031 176.109H162.297V183.016H58.7031V176.109ZM58.7031 189.922H141.578V196.828H58.7031V189.922Z" fill="#93E6E5"/>
</g>
<defs>
<clipPath id="clip0_25_590">
<rect width="221" height="221" fill="white"/>
</clipPath>
</defs>
</svg>
